<?xml version="1.0" encoding="utf-8"?>

<!DOCTYPE svg PUBLIC "-//W3C//DTD SVG 1.1//EN" "http://www.w3.org/Graphics/SVG/1.1/DTD/svg11.dtd">
<!-- Uploaded to: SVG Repo, www.svgrepo.com, Generator: SVG Repo Mixer Tools -->
<svg version="1.1" id="_x32_" xmlns="http://www.w3.org/2000/svg" xmlns:xlink="http://www.w3.org/1999/xlink" 
	 width="800px" height="800px" viewBox="0 0 512 512"  xml:space="preserve">
<style type="text/css">
<![CDATA[
	.st0{fill:#000000;}
]]>
</style>
<g>
	<path class="st0" d="M318.906,337.75c-1.344-3.219-2.25-6.781-2.656-10.719c-1.563-14.844,0.594-18.656,3-29.688
		c2.297-2.438,4.516-5.156,6.688-8.219l-7.703-5.031H196.359l-9.453,6.188c1.891,2.594,3.844,4.906,5.844,7.047
		c2.422,11.031,4.547,14.844,3.016,29.703c-0.406,3.938-1.313,7.5-2.656,10.719c-19.875,47.938-134.766,25.656-134.766,128
		C58.344,482.625,114.813,512,256,512s197.656-29.375,197.656-46.25C453.656,363.406,338.766,385.688,318.906,337.75z
		 M394.25,482.875c-24.344,6.25-68.109,13.656-138.25,13.656s-113.906-7.406-138.25-13.656
		c-31.922-8.156-41.672-16.688-43.922-19.109c0.375-22.578,7.094-38.797,21.063-50.984c13.406-11.688,32.031-18.531,50.047-25.156
		c18.922-6.938,38.297-14.063,51.297-27.25l49.938,41.094l9.828,8.094l9.828-8.094l49.938-41.094
		c13,13.188,32.391,20.313,51.297,27.25c18.016,6.625,36.641,13.469,50.063,25.156c13.953,12.188,20.672,28.406,21.047,50.984
		C435.938,466.188,426.188,474.719,394.25,482.875z"/>
	<path class="st0" d="M324.344,213.734v63.047l6.672,4.375c4.953-8.594,9.672-19.313,14.484-32.875
		c12.734-4.688,25.672-15.469,31.688-42.063c2.453-10.875-1.094-21.063-7.75-28.906L324.344,213.734z"/>
	<path class="st0" d="M142.391,154.75l3.188,13.531l47.609,38.438h124.766l51.406-41.5c2.859-11.609,6.281-29.563,6.094-48.375
		H138.719c0.625,11.406,2.344,21.438,4.031,30.375C142.594,149.719,142.391,152.219,142.391,154.75z"/>
	<path class="st0" d="M166.516,248.281c5.047,14.219,9.984,25.297,15.188,34.094l5.109-3.344v-65.297l-44.578-36.016
		c-6.438,7.813-9.828,17.813-7.406,28.516C140.828,232.813,153.781,243.625,166.516,248.281z"/>
	<path class="st0" d="M221.484,84.375c8.922,8.938,21.313,14.469,34.953,14.469c13.625,0,26.016-5.531,34.938-14.469
		c2.391-2.375,4.5-5,6.375-7.813h69.859c-7.188-15.859-20.141-28.969-42.234-34.844c-10.266-12.844-19.984-19.875-30.594-23.453
		c-1.063-1.328-2.203-2.578-3.406-3.797C282.453,5.531,270.063,0,256.438,0c-13.641,0-26.031,5.531-34.953,14.469
		c-1.969,1.969-3.766,4.125-5.391,6.406c-1.328-0.078-2.766-0.234-4.359-0.469c-15.547-2.25-28.156-6.969-31.953-8.875
		c-2.172-1.094-22.688,17.094-28.406,31.969c-4.594,11.922-7.703,22.906-9.719,33.063h73.469
		C216.984,79.375,219.109,82,221.484,84.375z M229.391,22.375c6.938-6.938,16.469-11.188,27.047-11.188s20.094,4.25,27.047,11.188
		c6.922,6.938,11.188,16.469,11.203,27.063c-0.016,10.563-4.281,20.094-11.203,27.031c-6.953,6.938-16.469,11.219-27.047,11.219
		s-20.109-4.281-27.047-11.219S218.188,60,218.188,49.438C218.188,38.844,222.453,29.313,229.391,22.375z"/>
	<path class="st0" d="M256.438,64.281c8.188,0,14.844-6.656,14.844-14.844c0-8.219-6.656-14.844-14.844-14.844
		c-8.203,0-14.844,6.625-14.844,14.844C241.594,57.625,248.234,64.281,256.438,64.281z"/>
</g>
</svg>