<?xml version="1.0" ?><!-- Uploaded to: SVG Repo, www.svgrepo.com, Generator: SVG Repo Mixer Tools -->
<svg width="800px" height="800px" viewBox="0 0 32 32" data-name="Layer 1" id="Layer_1" xmlns="http://www.w3.org/2000/svg"><defs><style>.cls-1{fill:#4d4d4d;}</style></defs><title/><path class="cls-1" d="M15.28,14h0A5,5,0,0,0,16,11a3.16,3.16,0,0,0-3-3,3.16,3.16,0,0,0-3,3,5,5,0,0,0,.74,3h0c-.36.1-2.72,1.2-2.72,3a1,1,0,0,0,2,0c0-.28.89-.88,1.28-1l.11,0a2.3,2.3,0,0,0,1.1-.58,2.2,2.2,0,0,0,1,0,2.3,2.3,0,0,0,1.1.58l.07,0c.43.16,1.28.77,1.32,1.05a1,1,0,0,0,2,0C18,15.24,15.64,14.14,15.28,14ZM13,10a1.17,1.17,0,0,1,1,1,2.68,2.68,0,0,1-.71,2.29.39.39,0,0,1-.58,0A2.68,2.68,0,0,1,12,11,1.17,1.17,0,0,1,13,10Z"/><path class="cls-1" d="M28.21,26.79l-7.47-7.46a10,10,0,1,0-1.41,1.41l7.46,7.47a1,1,0,0,0,1.42,0A1,1,0,0,0,28.21,26.79ZM7.34,18.66A8,8,0,1,1,13,21,8,8,0,0,1,7.34,18.66Z"/></svg>