<?xml version="1.0" encoding="utf-8"?>
<!-- Uploaded to: SVG Repo, www.svgrepo.com, Generator: SVG Repo Mixer Tools -->
<svg width="800px" height="800px" viewBox="0 -48.06 385.64 385.64" xmlns="http://www.w3.org/2000/svg"><defs><style>.a{fill:#ffffff;}.b{fill:#a0a0a0;}.c{fill:#957f6e;}.d{fill:#211715;}.e{fill:#7abee6;}.f{fill:#85807f;}</style></defs><path class="a" d="M343.657,13.213a15.949,15.949,0,0,0-3.826-3.608A36.532,36.532,0,0,0,315.7,2.046c-12.5.386-22.628,5.019-29.508,12.817a38.392,38.392,0,0,0-8.073,17c-.137.683-.259,1.41-.366,2.172a61.624,61.624,0,0,0,.7,20.315c.312,3.806.544,7.551.82,11.074.655,8.378,2.965,16.009,8.667,20.981a27.107,27.107,0,0,0,13.668,6.709c-.051.318-.111.628-.161.948a8.3,8.3,0,0,1-.52,2.03,6.966,6.966,0,0,1-1.43,1.94,13.048,13.048,0,0,1-3.588,2.659c.277,2.854.608,6.307.972,10.078,9.97,1.692,20.144.557,30.172-.442,2.242-4.885,4.177-9.273,5.5-12.561a3.718,3.718,0,0,1-.939-1.032,4.346,4.346,0,0,1-.43-1.82,42.837,42.837,0,0,1,.473-10.689,46.319,46.319,0,0,0,6.067-6.978s1.581-2.281,2.26-3.591c0,0,.146-.3.344-.711a10.223,10.223,0,0,0,5.066-1,13.885,13.885,0,0,0,5.438-6.01c1.372-2.56,2.087-6.915,1.01-9.5a4.715,4.715,0,0,0-3.684-2.818c.485-2.631,1.024-6.342,1.61-11.518,1.59-14.028-1.734-22.545-4.958-27.319C344.424,14.206,344.035,13.684,343.657,13.213Z"/><path class="a" d="M62.618,285.878q-.321.816-.641,1.638c-36.455,0-47.9-8.3-51.25-16.23a23.891,23.891,0,0,1-.94-13.97,18.827,18.827,0,0,1,7.37-11.65l2.91-1.73.284-.169a31.419,31.419,0,0,0,5.456,7.649c6.31,6.7,9.8,9.18,16.9,13.93,6.5,4.55,12.17,7.58,20.31,12.93a3.47,3.47,0,0,1,1.46,1.29,3.084,3.084,0,0,1-.29,2.36C63.661,283.219,63.14,284.542,62.618,285.878Z"/><path class="a" d="M239.867,287.516c-.17-13.87.36-35.5,2.76-44.09,1-3.6,4.21-8.74,6.53-11.67,2.97-3.74,13.03-11.11,19.2-14l19.414-7.53h77.556l3.25,11.6c4.24,18,.82,25.07-1.89,30.99-1.59,3.48-4.31,6.31-7.36,9.27-2,1.94-5.07,3.31-8.01,5.2-2.93,1.87-18.5,8.55-23.3,10.46-1.82,1.78-2.39,5.77-2.45,9.77Z"/><path class="a" d="M237.634,104q1.086,3,2.153,6.008l2.538,6.859a15.543,15.543,0,0,1,2.2,2.286,8.783,8.783,0,0,1,1.707,3,19.5,19.5,0,0,1,.568,4.513c-.081,4.57-1.056,7.741-3.772,12.2-4.967,2.075-9.391,4.095-14.679,6.594-.783-1.786-1.618-3.693-1.618-3.693a7.247,7.247,0,0,1-5.095-1.3,16.142,16.142,0,0,1-3.849-4.176,21.923,21.923,0,0,1-3.634-9.389v-3.02a15.9,15.9,0,0,1-2.533-2.618,5.224,5.224,0,0,1-1.344-4.285,4.708,4.708,0,0,1,1.424-2.646c1.295-1.069,3.385-1.112,5.434-.986a3.294,3.294,0,0,1,2.4-3.081,6.6,6.6,0,0,1,3.8.576,2.674,2.674,0,0,1,1.7-3.42c1.444-.4,3.294.424,4.944,1.483l-1.127-2.57a96.787,96.787,0,0,1-5.365-14.936,5.534,5.534,0,0,1,.134-3.58,4.3,4.3,0,0,1,2.208-2.242,5.078,5.078,0,0,1,3.042.02c1.82.354,2.571,1.724,3.228,3.457Q234.924,96.511,237.634,104Z"/><path class="b" d="M375.847,244.586a18.587,18.587,0,0,1,7.28,11.53,26.8,26.8,0,0,1-.92,13.81c-3.05,9.2-12.55,17.59-56.64,17.59.06-4,.63-7.99,2.45-9.77,4.8-1.91,20.37-8.59,23.3-10.46,2.94-1.89,6.01-3.26,8.01-5.2,3.05-2.96,5.77-5.79,7.36-9.27a36.462,36.462,0,0,0,3.53-10.83l1.36.06Z"/><path class="c" d="M33.572,109.6c-6.672-2.744-7-7.259-7.178-9.969A30.193,30.193,0,0,1,27.54,88.91c1.246-4.773,3.5-14.444,2.389-31.334A81.463,81.463,0,0,1,29.054,46.9c-.046-1.667-.06-3.078-.061-4-.04-9.458,4.114-20.354,10.286-26.659C46.964,7.413,61.783,3.085,69.713,3.26c9.967.221,17.747,2.87,24.32,7.95l4.113,3.178,1.343,1.5a38.6,38.6,0,0,1,8.266,17.023,61.506,61.506,0,0,1,.2,20.811c-.663,13.3,3.854,27.113,3.346,37.994-.152,3.457-1.688,7.676-6.314,11.162Z"/><path class="a" d="M47.9,55.332l-6.276.7a5.328,5.328,0,0,0-3.882-.693,4.813,4.813,0,0,0-3.884,2.915c-1.059,2.61-.3,6.981,1.1,9.542a13.966,13.966,0,0,0,5.521,5.994,10.246,10.246,0,0,0,5.042.961l.411.71c.694,1.311,2.3,3.59,2.3,3.59a46.042,46.042,0,0,0,6.6,7.357,41.269,41.269,0,0,1-.423,4.908,16.11,16.11,0,0,1-.99,3.86C52,98.574,45.536,100.591,41.5,101.8a53.614,53.614,0,0,0,34.072,11.939c4.437-.069,9.151-.225,13.328-1.986a17.793,17.793,0,0,0,9.078-8.522c-3.109-1.071-7-2.293-9.194-3.262-2.241-.77-5.141-2.331-4.485-5.221a27.175,27.175,0,0,0,14.063-6.929c5.688-5.048,7.942-12.74,8.528-21.168.387-5.576.309-11.785,1.46-17.721l-.422-.117c-5.375-1.488-11.713-7.31-14.234-10.84-1.022-1.431-2.412-3.553-3.737-5.806A139.1,139.1,0,0,1,47.9,55.335"/><path class="d" d="M85.879,77.366c-.141.082-.283.161-.429.233a2.526,2.526,0,0,0-.23.108c0-.036.408-.162.053-.028a9.533,9.533,0,0,1-1.059.328c-.21.052-.422.1-.635.139-.1.019-.192.034-.289.051-.262.048-.031-.016.094-.007-.4-.03-.847.085-1.25.095a11.064,11.064,0,0,1-1.152-.032c-.093-.008-.185-.02-.278-.028-.276-.021.391.072.125.016-.194-.04-.39-.069-.582-.117-.172-.042-.343-.091-.511-.148-.129-.044-.651-.256-.276-.1-.582-.248-1.158-.51-1.747-.743a2.007,2.007,0,0,0-2.46,1.4,2.059,2.059,0,0,0,1.4,2.46c.353.14-.134-.065.083.03l.317.139q.51.224,1.023.438a7.588,7.588,0,0,0,1.236.41,11.724,11.724,0,0,0,2.971.269A12.04,12.04,0,0,0,87.9,80.82a2,2,0,0,0-2.019-3.454Z"/><path class="d" d="M74.8,60.847c.4-1.762-.241-5.7-3.528-5.789-4.309.349-4.18,5.155-2.56,7.3C70.039,64.11,73.59,64.614,74.8,60.847Z"/><path class="d" d="M99.947,59.741c.36-1.766-.243-5.715-3.254-5.82-3.945.334-3.808,5.155-2.316,7.31C95.6,63,98.852,63.515,99.947,59.741Z"/><path class="d" d="M83.618,66.234c.318.489.626.986.927,1.486a16.711,16.711,0,0,1,.922,1.654l-.2-.478a1.757,1.757,0,0,1,.121.408l-.071-.532a1.069,1.069,0,0,1,0,.2l.071-.532a.556.556,0,0,1-.029.122l.2-.477a.487.487,0,0,1-.059.113l.313-.405a2.083,2.083,0,0,1-.346.337l.405-.313a1.893,1.893,0,0,1-.342.2l.478-.2a2.151,2.151,0,0,1-.511.128l.531-.071c-.28.036-.563.064-.842.116a2.017,2.017,0,0,0-1.2.919,2,2,0,0,0,.718,2.737,2.239,2.239,0,0,0,1.541.2c.042-.008.085-.015.128-.021l-.532.071a5.584,5.584,0,0,0,1.171-.2,3.841,3.841,0,0,0,1.521-.955,2.718,2.718,0,0,0,.7-2.5,4.491,4.491,0,0,0-.519-1.269c-.5-.945-1.069-1.859-1.652-2.756a2.111,2.111,0,0,0-1.2-.919,2.049,2.049,0,0,0-1.542.2,2,2,0,0,0-.717,2.737Z"/><path class="d" d="M58.438,86.818a43.969,43.969,0,0,1-7.09-6.969c-.647-.8-1.12-1.405-1.763-2.342a33.636,33.636,0,0,1-1.93-3.052,2.019,2.019,0,0,0-2.737-.718,2.043,2.043,0,0,0-.717,2.737,40.356,40.356,0,0,0,4.189,6.042,44.112,44.112,0,0,0,7.219,7.131,2.056,2.056,0,0,0,2.829,0,2.022,2.022,0,0,0,0-2.829Z"/><path class="d" d="M42.631,54.308a7.778,7.778,0,0,0-8.947.808c-1.887,1.637-2.416,4.274-2.315,6.666.229,5.38,3.3,11.379,8.288,13.835a10.566,10.566,0,0,0,9.182.228,2,2,0,1,0-2.019-3.454,5.509,5.509,0,0,1-3.344.276,10.5,10.5,0,0,1-1.724-.472c-.408-.149.209.131-.145-.065-.318-.176-.633-.356-.937-.557a12.574,12.574,0,0,1-4.317-5.434,12.3,12.3,0,0,1-.948-3.8,10.258,10.258,0,0,1,.006-2.181c.019-.145.094-.5.15-.7.044-.161.437-1.014.118-.411.089-.168.175-.334.27-.5.039-.065.348-.432.086-.133a2.454,2.454,0,0,1,1.107-.826,3.709,3.709,0,0,1,3.47.174c2.2,1.342,4.217-2.116,2.019-3.454Z"/><path class="d" d="M63.569,93.6c9.4,3.857,20.081,5.151,29.417.381a28.147,28.147,0,0,0,10.751-9.4A33.055,33.055,0,0,0,108.4,71.2c.934-6.442.6-12.988,1.492-19.434a2.067,2.067,0,0,0-1.4-2.46,2.014,2.014,0,0,0-2.46,1.4c-1.354,9.733.147,20.446-4.394,29.5C97.7,88.054,89.1,92.883,80.434,93.1a39.066,39.066,0,0,1-15.8-3.357,2.013,2.013,0,0,0-2.46,1.4,2.05,2.05,0,0,0,1.4,2.46Z"/><path class="d" d="M98.075,17.3c7.724,8.735,9.419,20.96,8.425,32.181-.126,1.421-.405,2.822-.54,4.239a38.874,38.874,0,0,0-.026,5c.113,3.194.449,6.374.867,9.541.794,6.012,1.976,11.991,2.407,18.046a23.123,23.123,0,0,1-.352,8.028,13.567,13.567,0,0,1-4.873,6.809,2.067,2.067,0,0,0-.718,2.736A2.013,2.013,0,0,0,106,104.6c4.585-3.535,7.242-8.187,7.34-14.011.105-6.313-1.108-12.609-2.038-18.828-1-6.664-1.876-13.418-1.033-20.136a60.411,60.411,0,0,0-.456-18.591A39.432,39.432,0,0,0,100.9,14.47c-1.708-1.933-4.529.9-2.828,2.828Z"/><path class="d" d="M95.042,9.483A41.664,41.664,0,0,0,63.357,1.825C52.948,3.586,42.642,8.611,35.985,16.957a42.1,42.1,0,0,0-7.773,16.2c-1.434,5.856-1.344,11.824-.982,17.8.2,3.333.739,6.62.88,9.956.134,3.21.159,6.424.039,9.635A83.56,83.56,0,0,1,26.677,83.79c-.307,1.541-.673,3.067-1.065,4.588A35.344,35.344,0,0,0,24.405,99.8a14.382,14.382,0,0,0,1.476,5.924,13.193,13.193,0,0,0,6.681,5.6,2.069,2.069,0,0,0,2.737-.717,2.015,2.015,0,0,0-.718-2.737,10.06,10.06,0,0,1-5.246-4.169,9.071,9.071,0,0,1-.93-3.9,30.006,30.006,0,0,1,.822-9.417c.353-1.431.736-2.851,1.049-4.292a85.4,85.4,0,0,0,1.679-11.966c.2-2.706.278-5.42.27-8.133a66.92,66.92,0,0,0-.49-9.706,76.279,76.279,0,0,1-.669-9.01A60.305,60.305,0,0,1,31.19,39.1a39.808,39.808,0,0,1,5.4-16.033C41.9,14.186,51.06,8.879,60.906,6.421a38.13,38.13,0,0,1,32.118,6.516,2.011,2.011,0,0,0,2.736-.718,2.05,2.05,0,0,0-.718-2.736Z"/><path class="d" d="M82.2,95.506a6.09,6.09,0,0,0,3.013,4.976,12.608,12.608,0,0,0,2.468,1.21c.076.03.591.2.247.075.275.1.541.231.812.342.369.153.742.3,1.116.44,3.395,1.282,6.9,2.263,10.277,3.591a2.015,2.015,0,0,0,2.46-1.4,2.047,2.047,0,0,0-1.4-2.46c-3.033-1.193-6.17-2.11-9.237-3.21-.665-.238-1.324-.49-1.981-.749-.575-.227.34.148-.19-.08-.251-.108-.5-.2-.758-.3-.16-.061-.321-.117-.478-.184.244.1-.159-.078-.2-.1a6.611,6.611,0,0,1-1.615-1.039c-.332-.328-.207-.151-.422-.551a1.127,1.127,0,0,1-.115-.564c-.042-2.571-4.043-2.579-4,0Z"/><path class="d" d="M42.338,103.638c3.687-1.113,7.591-2.317,10.631-4.771a8.818,8.818,0,0,0,2.959-4.927,35.4,35.4,0,0,0,.889-7.211,2,2,0,0,0-4,0,30.158,30.158,0,0,1-.682,5.889,7.142,7.142,0,0,1-.85,2.3c-.043.067-.089.132-.137.2q.2-.254.059-.087c-.132.147-.262.293-.4.431-.124.122-.254.24-.386.354-.061.053-.473.368-.165.14-2.726,2.01-5.713,2.847-8.978,3.832a2,2,0,0,0,1.063,3.857Z"/><path class="d" d="M88.229,33.179a46.028,46.028,0,0,0,7.856,10.439c3.213,3.02,7.015,5.891,11.31,7.125,2.479.712,3.537-3.146,1.063-3.857-3.669-1.054-6.974-3.647-9.735-6.277-.658-.627-1.3-1.276-1.905-1.951-.3-.33-.59-.665-.872-1.009a7.04,7.04,0,0,1-.526-.683c-1.344-1.867-2.568-3.827-3.737-5.806-1.308-2.215-4.767-.205-3.454,2.019Z"/><path class="d" d="M48.43,57.263a140.146,140.146,0,0,0,42.94-23.68c1.99-1.635-.854-4.451-2.828-2.828A134.692,134.692,0,0,1,47.366,53.406c-2.415.842-1.377,4.707,1.064,3.857Z"/><path class="e" d="M158.267,287.516h0q1.5-3.72,3.01-7.439c4.511-11.13,9.051-23.62,4.681-34.8-3.96-10.11-14.081-16.18-23.54-21.51-5.664-3.191-11.353-6.393-17.162-9.321a62.481,62.481,0,0,0,1.71-11.567l7.655-7.969c2.617-2.8,4.655-13.456,1.368-22.755-5.689-16.095-3.988-24.892-8.287-41.529a44.769,44.769,0,0,0-8.7-15.781c-5.663-6.813-12.084-8.994-20.859-11.965a17.809,17.809,0,0,1-9.251,8.875c-4.177,1.761-8.891,1.917-13.328,1.986A53.619,53.619,0,0,1,41,101.384c-10.244,2.656-21.581,10.881-24.574,15.367-5.016,7.518-5.973,13.687-7.786,22.47-2.295,11.114-3.061,17.362-5.406,29.447C.6,182.215,2.118,189.074,5.673,197.335c2.383,5.537,7.69,10.813,15.9,14.869l-1.53,6.5c-.941,3.99-1.64,7.92-1.9,9.92-1.309,10.14,2.192,16.971,7.671,22.79,6.31,6.7,9.791,9.176,16.893,13.93,6.5,4.554,12.17,7.575,20.31,12.925a3.47,3.47,0,0,1,1.46,1.29,3.084,3.084,0,0,1-.29,2.36c-.737,1.816-1.474,3.7-2.211,5.594h96.294Z"/><path class="d" d="M329.3,86.818a44.036,44.036,0,0,0-.239,5.637c.041,1.769-.058,3.955.957,5.492a12.191,12.191,0,0,0,4.072,3.3,25.065,25.065,0,0,0,4.938,2.209,2,2,0,0,0,1.063-3.857,20,20,0,0,1-3.76-1.676q-.948-.548-1.84-1.184a3.987,3.987,0,0,1-1.144-1.011,3.982,3.982,0,0,1-.2-1.39q-.084-1.23-.1-2.464a44.274,44.274,0,0,1,.248-5.057,2.013,2.013,0,0,0-2-2,2.045,2.045,0,0,0-2,2Z"/><path class="f" d="M356.225,44.6A66.909,66.909,0,0,0,355.1,31.548c-1.869-8.011-5.028-14.294-12.574-19.812-9.416-7.961-18.1-9.959-26.825-9.69-12.5.386-22.628,5.019-29.508,12.817a38.392,38.392,0,0,0-8.073,17,52.737,52.737,0,0,0-.885,9.26c3.257-.545,6.136-1.03,6.136-1.03a39.661,39.661,0,0,0,11.177-2.472,9.6,9.6,0,0,0,14.381,1.727,10.3,10.3,0,0,0,12.767,2L325.83,46.9a21.353,21.353,0,0,0,3.772,4.22,7.194,7.194,0,0,0,5.267,1.677l9.232,1.5a5.3,5.3,0,0,1,3.855-.723,4.786,4.786,0,0,1,3.889,2.866c1.077,2.586.362,6.941-1.01,9.5a13.885,13.885,0,0,1-5.438,6.01,10.216,10.216,0,0,1-5.049,1c-.213.417-.361.709-.361.709-.679,1.31-2.26,3.591-2.26,3.591a46.3,46.3,0,0,1-6.065,6.977q-.3,1.724-.451,3.476l1.09.2.965.179a11.649,11.649,0,0,0,3.545-.018c9.494-1.474,13.891-6.663,17.031-13.345,2.067-4.4,2.106-9.445,2.106-14.307,0-2.169.277-13.645.277-15.814"/><path class="d" d="M354.225,44.6c-.009,5.238-.254,10.475-.277,15.713-.02,4.736.018,9.612-2.106,13.967a22.865,22.865,0,0,1-5.9,7.946,16.941,16.941,0,0,1-5.047,2.779c-2.173.761-4.778,1.506-7.1,1.15a2.065,2.065,0,0,0-2.461,1.4,2.016,2.016,0,0,0,1.4,2.461c4.523.691,9.605-.769,13.483-3.12a23.081,23.081,0,0,0,7.841-8.265A29.4,29.4,0,0,0,357.9,64.416c.114-3.28.08-6.571.146-9.853.066-3.32.174-6.642.18-9.963,0-2.574-4-2.578-4,0Z"/><path class="d" d="M299.267,79.281a11.815,11.815,0,0,0,5.616,1.317,11.542,11.542,0,0,0,2.839-.327,21.326,21.326,0,0,0,3.052-1.263,2.005,2.005,0,0,0,.717-2.737,2.063,2.063,0,0,0-2.736-.717c-.414.176-.818.373-1.227.561a1.973,1.973,0,0,1-.3.134c.417-.109.078-.037-.025,0-.16.057-.322.106-.486.15s-.335.081-.505.113c-.087.016-.175.028-.263.045-.267.05.4-.037.127-.019-.4.027-.794.063-1.2.061q-.577,0-1.154-.061a1.987,1.987,0,0,0-.286-.032c.119-.006.37.057.105.01-.186-.034-.371-.066-.556-.105a9.744,9.744,0,0,1-1.112-.309c-.081-.028-.161-.063-.243-.089-.247-.08.354.174.13.057-.159-.083-.323-.155-.481-.242a2,2,0,0,0-2.019,3.454Z"/><path class="d" d="M311.37,58.731c-.422-1.782.194-5.778,3.526-5.9,4.372.316,4.284,5.19,2.66,7.377C316.227,62,312.631,62.541,311.37,58.731Z"/><path class="d" d="M286.215,57.025c-.395-1.782.2-5.778,3.341-5.908,4.128.307,4.035,5.181,2.5,7.371C290.8,60.281,287.4,60.831,286.215,57.025Z"/><path class="d" d="M299,62.034c-.562.882-1.109,1.781-1.592,2.709A4.383,4.383,0,0,0,296.9,66a2.869,2.869,0,0,0,.012,1.316,2.741,2.741,0,0,0,.694,1.167,3.831,3.831,0,0,0,1.511.939,5.434,5.434,0,0,0,1.157.194l-.531-.072c.042.006.083.012.125.02a2.156,2.156,0,0,0,1.541-.2,2,2,0,0,0,.718-2.736,1.958,1.958,0,0,0-1.2-.919c-.292-.053-.588-.081-.882-.119l.532.072a2.018,2.018,0,0,1-.454-.116l.478.2a1.877,1.877,0,0,1-.337-.194l.405.313a2.07,2.07,0,0,1-.341-.327l.313.405a.506.506,0,0,1-.059-.11l.2.478a.507.507,0,0,1-.03-.119l.071.531a1.108,1.108,0,0,1,0-.191l-.071.532a1.743,1.743,0,0,1,.115-.4l-.2.478a15.9,15.9,0,0,1,.887-1.626c.29-.491.586-.979.893-1.461a2.017,2.017,0,0,0-.717-2.736,2.045,2.045,0,0,0-2.737.717Z"/><path class="d" d="M330.476,87.872a43.974,43.974,0,0,0,7.156-7.2,39.881,39.881,0,0,0,4.082-6,2,2,0,1,0-3.454-2.018,33.135,33.135,0,0,1-1.859,3c-.172.255-.344.509-.524.758-.485.672-.788,1.071-1.2,1.593a43.807,43.807,0,0,1-7.027,7.039,2.014,2.014,0,0,0,0,2.829,2.051,2.051,0,0,0,2.829,0Z"/><path class="d" d="M340.841,7.878A39.614,39.614,0,0,0,321.146.206,47.706,47.706,0,0,0,301.4,2.538a39.347,39.347,0,0,0-15.432,9.626,38.522,38.522,0,0,0-9.485,17.842,57.8,57.8,0,0,0-.265,23.371c.458,2.529,4.314,1.458,3.857-1.063-2.187-12.072-.895-26.463,7.531-36.037,7.772-8.83,19.55-12.626,31.1-12.228a35.907,35.907,0,0,1,20.12,7.283,2.015,2.015,0,0,0,2.736-.717,2.046,2.046,0,0,0-.717-2.737Z"/><path class="d" d="M321.52,88.007c-8.28,3.482-17.865,5.2-26.234,1a23.88,23.88,0,0,1-9.634-8.341,31.131,31.131,0,0,1-4.086-12.384c-.814-6.016-.9-12.141-1.493-18.183a2.058,2.058,0,0,0-2-2,2.014,2.014,0,0,0-2,2c.578,5.847.732,11.744,1.419,17.577a37.3,37.3,0,0,0,4.145,14.064c4.786,8.5,14.556,13.59,24.157,13.75a41.583,41.583,0,0,0,16.79-3.624,2.068,2.068,0,0,0,1.4-2.46,2.014,2.014,0,0,0-2.461-1.4Z"/><path class="d" d="M344.667,16.1a29.031,29.031,0,0,1,7.629,12.7,55.171,55.171,0,0,1,1.929,15.8c.018,2.573,4.018,2.579,4,0a58.6,58.6,0,0,0-2.187-17.231A33.019,33.019,0,0,0,347.5,13.276c-1.854-1.787-4.686,1.037-2.828,2.828Z"/><path class="d" d="M345.111,56.023a3.69,3.69,0,0,1,3.439-.221,3.628,3.628,0,0,1,.79.465c-.234-.183.175.188.2.208.083.086.162.175.237.268-.141-.182-.149-.185-.025-.007.1.162.191.323.273.493s.07.15-.02-.045c.054.147.1.3.144.448.056.2.142.57.16.7a9.8,9.8,0,0,1,.043,1.891,12.855,12.855,0,0,1-4.9,9.333c-.34.247-.7.448-1.058.671-.423.266.058.014-.289.145a10.514,10.514,0,0,1-1.535.443,5.49,5.49,0,0,1-3.47-.2,2.051,2.051,0,0,0-2.737.718,2.018,2.018,0,0,0,.718,2.736,10.316,10.316,0,0,0,8.266.091,13.847,13.847,0,0,0,6.326-5.644,17.43,17.43,0,0,0,2.624-7.593c.26-2.48-.078-5.219-1.8-7.138a7.678,7.678,0,0,0-9.4-1.211c-2.183,1.355-.177,4.817,2.019,3.454Z"/><path class="d" d="M283.368,42.1a43.058,43.058,0,0,0,11.709-2.543l-2.259-.919a11.784,11.784,0,0,0,17.522,2.131h-2.828a12.365,12.365,0,0,0,15.19,2.313l-2.736-.717c1.553,2.083,3.092,4.177,4.661,6.248a17.921,17.921,0,0,0,4.977,4.925c1.728,1.013,4.57,1.96,6.494.937a2.2,2.2,0,0,0-1.579-4.08,1.944,1.944,0,0,0-1.4,1.4l-.016.108a2.064,2.064,0,0,0,1.4,2.46,2.014,2.014,0,0,0,2.46-1.4l.016-.107-1.4,1.4.126-.03h-1.063l.138.047-1.195-.919.055.124V51.452l-.093.177.717-.718c.411-.234-.154-.056-.4-.074a4.306,4.306,0,0,1-.659-.105,5.534,5.534,0,0,1-1.583-.651,11.378,11.378,0,0,1-2.908-2.689c-1.866-2.262-3.543-4.7-5.295-7.049a2.051,2.051,0,0,0-2.736-.718,8.341,8.341,0,0,1-10.344-1.687,2.037,2.037,0,0,0-2.828,0,7.7,7.7,0,0,1-11.24-1.322,2.049,2.049,0,0,0-2.259-.919,39.237,39.237,0,0,1-10.645,2.4c-2.549.2-2.571,4.2,0,4Z"/><path class="a" d="M276.132,209.954V178.843l-9.776,1.545a19.35,19.35,0,0,1-26.195,7.333c-6.944-3.852-10.519-11.392-13.168-18.878a155.942,155.942,0,0,1-4.664-15.148c-.56-2.464-.821-4.967,1.206-5.936,8.431-4.027,14.274-6.762,21.625-9.765a3.3,3.3,0,0,1,2.6-.165,3.629,3.629,0,0,1,1.372,1.477c.61.974,1.53,2.444,2.407,3.848a2.95,2.95,0,0,0,2.191-.322A6.833,6.833,0,0,0,256.1,139.6a68.992,68.992,0,0,0,3.526-9.7c1.06-3.774,1.807-7.662,3.4-11.245a25.893,25.893,0,0,1,12.381-12.728c3.825-1.827,8.073-2.7,12.061-4.1l1.173-.665q3.464-1.963,6.924-3.929c1.139,11.394,3.846,40.91,5.513,53.5l1.138,8.6,4.656-8.288c6.123-10.9,21.985-43.472,26.422-55.162q3.327,2.6,6.443,5.451c15.305,4.942,29.926,15.186,35.61,30.018,5.406,14.107,7.466,32.774,7.154,47.879-.168,8.068-.631,16.3-3.572,23.813s-10.688,14.2-20.465,15.973"/><path class="d" d="M241.867,287.516a309.273,309.273,0,0,1,1.115-33.831c.422-4.3.852-8.836,2.768-12.77a34.608,34.608,0,0,1,8.742-11.562,69.979,69.979,0,0,1,14.874-9.87c2.325-1.1.3-4.552-2.019-3.454a74.112,74.112,0,0,0-14.019,9.134,38.714,38.714,0,0,0-5.2,4.713,41.653,41.653,0,0,0-4.755,6.967,27.685,27.685,0,0,0-3,7.312,65.284,65.284,0,0,0-1.085,6.667c-.691,5.653-.994,11.355-1.2,17.043q-.355,9.82-.228,19.651c.03,2.572,4.03,2.579,4,0Z"/><path class="d" d="M370.567,243.773a31.5,31.5,0,0,1,5.669,3.685,18.116,18.116,0,0,1,5.361,12.229,26.156,26.156,0,0,1-1.805,11.025c-.112.288.2-.419-.013.025-.063.133-.121.268-.184.4q-.215.453-.456.894a19.023,19.023,0,0,1-1.111,1.752c-.084.12-.416.531-.048.072-.1.127-.2.256-.306.379-.246.284-.49.567-.75.839a21.246,21.246,0,0,1-1.771,1.623c-.37.309.055-.032-.157.124-.157.115-.314.232-.473.344-.372.264-.754.517-1.141.758a27.828,27.828,0,0,1-2.551,1.4,24.3,24.3,0,0,1-2.734,1.167c-1.176.439-2.371.826-3.576,1.174a76.106,76.106,0,0,1-8.756,1.923c-9.953,1.635-20.132,1.919-30.2,1.926-2.574,0-2.578,4,0,4a205.264,205.264,0,0,0,29.184-1.749,63.673,63.673,0,0,0,17.286-4.605,23.374,23.374,0,0,0,8.845-6.572c3.233-4.111,4.6-9.491,4.747-14.647a23.446,23.446,0,0,0-5.236-15.915c-2.156-2.544-4.993-4.035-7.807-5.709-2.217-1.319-4.232,2.138-2.019,3.454Z"/><path class="d" d="M366.648,222.358c1.483,6.365,2.609,13.239,1.546,19.72a31.226,31.226,0,0,1-1.628,6.013c-.378,1-.464,1.188-.9,2.164a31.072,31.072,0,0,1-1.661,3.358,26.533,26.533,0,0,1-3.578,4.535,25.585,25.585,0,0,1-4.305,3.925,78.494,78.494,0,0,1-7.5,4.416c-4.721,2.408-9.632,4.476-14.5,6.561-2.2.944-4.418,1.855-6.634,2.768-1.815.747-2.689,3.122-3.148,4.886a29.554,29.554,0,0,0-.77,6.812c-.051,2.575,3.949,2.575,4,0,.05-2.548-.035-6.364,1.864-8.356l-.883.515c4.363-1.74,8.676-3.614,12.972-5.51a97.007,97.007,0,0,0,11.61-5.655c1.658-1.015,3.389-1.911,5.011-2.983a26.61,26.61,0,0,0,4.2-3.6,30.287,30.287,0,0,0,6.259-8.5,39.948,39.948,0,0,0,3.513-10.659c1.09-7.176.028-14.459-1.606-21.471-.584-2.506-4.441-1.445-3.857,1.064Z"/><path class="e" d="M314.6,111.429a77.731,77.731,0,0,1-17.719-.656c1.3,13.469,3.013,31,4.2,39.968l1.138,8.6,4.656-8.288c4.344-7.733,13.589-26.372,20.179-40.724C322.918,110.743,318.759,111.178,314.6,111.429Z"/><path class="d" d="M341.443,104.036a61.829,61.829,0,0,1,22.126,13.4,43.133,43.133,0,0,1,7.7,9.922,55.723,55.723,0,0,1,4.739,12.526,134.085,134.085,0,0,1,4.346,29.058c.226,4.8.219,9.615.022,14.42a65.706,65.706,0,0,1-2.209,15.712,24.349,24.349,0,0,1-7.077,11.643,26.96,26.96,0,0,1-13.161,6.383c-2.527.476-1.457,4.332,1.063,3.857,8.887-1.675,17.386-7.481,21.211-15.832a49.507,49.507,0,0,0,3.777-15.815,136.888,136.888,0,0,0,.519-16.036,147.015,147.015,0,0,0-3.712-30.829A77.65,77.65,0,0,0,376.22,128.3a44.212,44.212,0,0,0-7.5-11.285c-7.031-7.817-16.395-13.289-26.213-16.837-2.425-.876-3.469,2.988-1.063,3.857Z"/><path class="d" d="M251.015,145.075c5.169.985,6.987-4.573,8.466-8.4,1.751-4.533,2.7-9.257,4.145-13.881a25.016,25.016,0,0,1,6.152-10.45,25.645,25.645,0,0,1,10.23-6.082c4.7-1.566,9.609-2.6,13.878-5.218,2.19-1.345.183-4.806-2.019-3.454-3.549,2.181-7.591,3.144-11.529,4.368a33.385,33.385,0,0,0-10.929,5.392,27.532,27.532,0,0,0-7.44,8.917c-2.072,3.986-2.968,8.377-4.15,12.673a70.062,70.062,0,0,1-2.539,7.544c-.424,1.056-1.558,5.048-3.2,4.735-2.515-.48-3.593,3.375-1.063,3.857Z"/><path class="d" d="M245.164,139.2c3.573-6.184,5.728-15.129.935-21.264a17.152,17.152,0,0,0-9.336-6.245c-3.526-.808-7.438-.292-9.116,3.332a5.192,5.192,0,0,0,.473,5.839,8.566,8.566,0,0,0,2.645,1.849l3.6,1.986c2.256,1.243,4.277-2.21,2.019-3.454l-2.968-1.636c-.6-.329-2.02-.8-2.368-1.444-.429-.8.432-2.1,1.127-2.517,1.25-.752,3.186-.24,4.471.155A12.369,12.369,0,0,1,241,118.356a11.176,11.176,0,0,1,3.19,3.965,12.3,12.3,0,0,1,.607,4.564,20.963,20.963,0,0,1-3.088,10.3c-1.29,2.233,2.165,4.249,3.454,2.019Z"/><path class="d" d="M241.716,109.475q-2.151-6.054-4.374-12.084-1.09-2.958-2.2-5.908A27.539,27.539,0,0,0,233,86.293c-1.807-2.823-6.136-3.923-8.96-1.965a6.328,6.328,0,0,0-2.7,4.4c-.275,2,.395,3.934.962,5.831a102.465,102.465,0,0,0,4.823,12.794,2.014,2.014,0,0,0,2.736.717,2.049,2.049,0,0,0,.718-2.736A94.5,94.5,0,0,1,226.162,93.5c-.438-1.46-1.387-3.485-.654-4.994a2.448,2.448,0,0,1,3.535-.723c1.082.7,1.488,2.76,1.9,3.857q1.154,3.064,2.289,6.134,2.355,6.369,4.626,12.767c.856,2.408,4.722,1.371,3.857-1.064Z"/><path class="d" d="M212.156,126.913a24.113,24.113,0,0,0,4.493,11.219c2.424,3.28,5.73,6.108,10.085,5.643a2.059,2.059,0,0,0,2-2,2.012,2.012,0,0,0-2-2,5.553,5.553,0,0,1-3.9-.9,12.38,12.38,0,0,1-3-3.131,20.372,20.372,0,0,1-3.677-8.83,2.068,2.068,0,0,0-2-2c-.971,0-2.144.922-2,2Z"/><path class="d" d="M227.158,119.969c.007.551.293,1.4-.191,1.6a2.257,2.257,0,0,1-1.13.031,14.48,14.48,0,0,1-4-1.834,2.009,2.009,0,0,0-2.423,3.141c.21.226.034-.2.033.134,0,.316.023.451-.194.672-.438.444-1.426.233-1.9.019a12.022,12.022,0,0,1-4.143-3.663c-.86-1.155-1.4-2.465-.541-3.792s3.142-.993,4.475-.918a2.02,2.02,0,0,0,2-2c-.023-1.915,2.736-.936,3.671-.576a1.979,1.979,0,0,0,2.1-.717,2.086,2.086,0,0,0,.156-2.221c.169.394-.006.181.107,0s.186-.369.386-.479c.327-.179,1.148.113,1.522.257a15.337,15.337,0,0,1,4.029,2.595,2.06,2.06,0,0,0,2.829,0,2.016,2.016,0,0,0,0-2.829c-2.215-1.817-4.985-4.036-8-4.054a4.664,4.664,0,0,0-4.322,6.529l2.259-2.938c-1.9-.729-4.14-1.16-6.01-.112a5.289,5.289,0,0,0-2.725,4.545l2-2c-3.192-.179-6.713.226-8.228,3.467-1.548,3.312-.133,6.4,2.172,8.908,2.17,2.364,5.3,4.924,8.729,4.028a4.7,4.7,0,0,0,2.428-7.683l-2.423,3.141c2.1,1.119,4.376,2.569,6.849,2.4a4.7,4.7,0,0,0,3.448-1.559c1.05-1.21,1.067-2.572,1.046-4.089-.036-2.572-4.036-2.579-4,0Z"/><path class="d" d="M303.08,150.741c-1.917-14.539-3.159-29.177-4.566-43.772q-.468-4.866-.947-9.731a2.027,2.027,0,0,0-3.009-1.727q-5.019,2.853-10.044,5.7a2.056,2.056,0,0,0-.717,2.736c1.264,2.886,2.952,5.574,4.413,8.361l.717-2.736c-2.641,1.238-5.276,2.488-7.845,3.871a2.05,2.05,0,0,0-.919,2.258c1.236,6.489,2.55,12.963,4.03,19.4.576,2.508,4.433,1.447,3.857-1.063-1.48-6.438-2.794-12.912-4.03-19.4l-.919,2.259c2.569-1.383,5.2-2.633,7.845-3.871a2.03,2.03,0,0,0,.718-2.736c-1.461-2.787-3.149-5.476-4.414-8.361l-.717,2.736q5.024-2.846,10.044-5.7l-3.01-1.727c1.437,14.386,2.728,28.785,4.3,43.157.376,3.452.764,6.9,1.218,10.346a2.066,2.066,0,0,0,2,2,2.011,2.011,0,0,0,2-2Z"/><path class="d" d="M330.19,139.819c4.158-5.42,8.118-11.1,12.579-16.277a2.032,2.032,0,0,0,0-2.828,74.643,74.643,0,0,0-8.488-6.224l.4,3.141C338.5,114.3,342.348,111,346,107.489a2.031,2.031,0,0,0,0-2.828A109.8,109.8,0,0,0,334.71,94.478a2.037,2.037,0,0,0-3.343.883c-2.619,6.876-5.883,13.706-9.084,20.494q-5.768,12.233-11.9,24.293c-1.7,3.323-3.41,6.642-5.235,9.9-1.26,2.248,2.193,4.267,3.454,2.019,3.712-6.621,7.072-13.451,10.422-20.26,4.046-8.222,8-16.492,11.749-24.857,1.556-3.474,3.1-6.965,4.452-10.524l-3.342.883a109.892,109.892,0,0,1,11.286,10.182v-2.828c-3.649,3.512-7.5,6.811-11.311,10.142a2.022,2.022,0,0,0,.4,3.141,67.245,67.245,0,0,1,7.678,5.6v-2.828c-1.756,2.039-3.346,4.239-4.987,6.371q-4.117,5.35-8.217,10.716a2.011,2.011,0,0,0,.718,2.736,2.05,2.05,0,0,0,2.736-.718Z"/><path class="d" d="M297.763,112.923c9.3,1.293,18.6.478,27.9-.453a2.056,2.056,0,0,0,2-2,2.014,2.014,0,0,0-2-2c-8.884.89-17.933,1.832-26.833.6a2.067,2.067,0,0,0-2.46,1.4,2.014,2.014,0,0,0,1.4,2.46Z"/><path class="d" d="M350.369,146.251a83.529,83.529,0,0,1-1.289,16.819,2.056,2.056,0,0,0,1.4,2.46,2.016,2.016,0,0,0,2.46-1.4,88.828,88.828,0,0,0,1.432-17.882c-.06-2.57-4.06-2.58-4,0Z"/><path class="d" d="M255.3,145.389l-2.638-4.213a23.141,23.141,0,0,0-2.939-4.377c-1.749-1.712-4.046-1.17-6.057-.34q-2.914,1.2-5.8,2.464c-3.8,1.665-7.57,3.418-11.323,5.2-1.885.893-4.452,1.6-5.694,3.384-1.113,1.6-1,3.606-.7,5.435a75.583,75.583,0,0,0,3.246,11.563c1.2,3.626,2.443,7.248,3.994,10.741,3.27,7.363,8.587,14.072,16.705,16.184A21.614,21.614,0,0,0,268.083,181.4c1.3-2.227-2.154-4.243-3.453-2.019A17.554,17.554,0,0,1,247.3,188c-7.116-.94-12.046-6.07-15.209-12.174-3.093-5.97-5.119-12.7-6.928-19.156a33.6,33.6,0,0,1-1.186-4.977,3.415,3.415,0,0,1,.073-1.746c.28-.548,1.063-.731,1.593-.983,3.423-1.633,6.85-3.258,10.3-4.827q2.77-1.258,5.566-2.463,1.324-.57,2.657-1.123c.6-.248,1.961-1.1,2.6-.923.5.14.813.963,1.085,1.4l1.358,2.169,2.638,4.214c1.363,2.177,4.825.171,3.454-2.019Z"/><path class="d" d="M274.132,178.843v31.111c0,2.574,4,2.578,4,0V178.843c0-2.574-4-2.578-4,0Z"/><path class="a" d="M330.342,180.114c-2.59-12.41-5.034-24.421-7.292-35.367a2.884,2.884,0,0,0-2.819-2.3q-27.762-.126-55.524-.371a2.892,2.892,0,0,0-2.868,3.434c3.8,19.929,9.519,50.622,13.609,72.589a2.9,2.9,0,0,0,2.828,2.364c14.293.1,40.362.518,54.618-.071"/><path class="d" d="M332.27,179.582q-2.823-13.533-5.587-27.079-.63-3.07-1.263-6.142c-.4-1.956-.688-3.9-2.491-5.085s-4.127-.834-6.168-.844l-7.189-.036q-14.253-.076-28.5-.185-7.19-.054-14.377-.116c-2.043-.018-4.013-.1-5.538,1.493a5.309,5.309,0,0,0-1.15,4.934c2.7,14.862,5.605,29.689,8.378,44.537q2.121,11.357,4.234,22.712c.626,3.362.75,8.079,5.054,8.635a37.3,37.3,0,0,0,4.387.088l4.689.044c13.968.134,27.95.35,41.916-.007q2.118-.054,4.234-.138c2.565-.1,2.579-4.1,0-4-12.884.524-25.805.328-38.7.215q-4.8-.042-9.611-.091-2.092-.019-4.184-.037c-.835-.007-2.5.346-2.944-.579a9.711,9.711,0,0,1-.446-2.283q-.235-1.271-.473-2.542-.473-2.535-.944-5.071l-2.025-10.862q-4.041-21.667-8.125-43.329-.447-2.361-.9-4.722-.207-1.086-.413-2.172a6.7,6.7,0,0,1-.348-2.072.934.934,0,0,1,.787-.773,15.131,15.131,0,0,1,3.1.028l6.693.056q13.509.11,27.018.19,6.693.041,13.386.073l3.222.016c.733,0,2-.26,2.639.118.541.319.542,1.016.658,1.578q.312,1.514.623,3.026,2.572,12.5,5.145,25,.672,3.243,1.348,6.487c.525,2.518,4.382,1.452,3.857-1.064Z"/><path class="a" d="M351.7,216.732c3.486-2.129,6.121-6.616,4.958-12.378-1.081-5.358-5.731-13.417-10.224-17.062-4.089-3.317-9.02-3.638-14.222-2.708-.71.156-2.17.467-2.17.467-2.516.537-4.848,1.666-5.557,3.794a4.391,4.391,0,0,0,2.35,5.479c-2.172,1.041-3.5,2.416-3.378,4.588s1.168,3.806,3.166,4.017c-1.275.72-1.412,2.818-.984,4.156s1.543,3.5,3.229,3.478c-1.077,1.035-.545,2.835.136,4.518a7.041,7.041,0,0,0,4.574,3.389C339.774,220.073,348.323,218.794,351.7,216.732Z"/><path class="d" d="M352.711,218.458a13.426,13.426,0,0,0,6.211-12.055c-.262-4.949-2.724-9.819-5.4-13.888-2.728-4.147-6.157-8.016-11.022-9.574-4.537-1.453-9.982-.905-14.462.578-2.612.865-5.066,2.587-5.642,5.441a6.409,6.409,0,0,0,3.434,7.091V192.6c-2.5,1.242-4.5,3.357-4.369,6.314.122,2.778,1.694,5.508,4.635,5.946l-.478-3.656c-4.277,2.879-1.77,11.049,3.254,11.361l-1.414-3.414c-2.07,2.364-1.131,6.183.806,8.384,2.064,2.344,5.1,3.089,8.068,3.45a33.874,33.874,0,0,0,9.2-.252,20.158,20.158,0,0,0,7.182-2.273c2.216-1.306.206-4.764-2.019-3.453-3.335,1.965-7.88,2.276-11.653,2.176-2.1-.056-4.558-.183-6.422-1.241a4.4,4.4,0,0,1-1.738-1.571c-.243-.436-.868-2.08-.6-2.392a2.027,2.027,0,0,0-1.414-3.414c-.894-.056-2.08-3.338-1.235-3.907,1.259-.847,1.369-3.38-.478-3.655a2.016,2.016,0,0,1-1.7-2.425c.09-1.342,1.3-1.981,2.395-2.525a2.011,2.011,0,0,0,0-3.453,2.481,2.481,0,0,1-1.373-3.353c.7-1.472,2.715-1.954,4.153-2.276,3.686-.824,7.519-1.328,11.17-.049,3.62,1.268,6.228,4.514,8.269,7.614a30.109,30.109,0,0,1,4.666,10.351,9.6,9.6,0,0,1-4.04,10.12C348.521,216.375,350.526,219.837,352.711,218.458Z"/><path class="d" d="M327.369,196.739c.793-.2,1.6-.343,2.406-.479q.8-.135,1.612-.251l.369-.052c.259-.036.239-.04-.008,0,.3-.051.606-.078.908-.114a23.258,23.258,0,0,1,5.71-.259,2,2,0,0,0,2-2,2.063,2.063,0,0,0-2-2,23.7,23.7,0,0,0-5.861.278,50.52,50.52,0,0,0-6.2,1.019,2.019,2.019,0,0,0-1.4,2.46,2.04,2.04,0,0,0,2.46,1.4Z"/><path class="d" d="M327.882,205.39a37.474,37.474,0,0,1,5.437-1.241c.245-.04.491-.078.736-.114.123-.019.246-.036.369-.054.174-.025.226-.029.02,0,.485-.06.97-.119,1.456-.167.953-.094,1.909-.158,2.867-.175a2,2,0,0,0,0-4,45.665,45.665,0,0,0-6.327.626,37.784,37.784,0,0,0-5.622,1.271,2,2,0,0,0,1.064,3.857Z"/><path class="d" d="M329.879,212.776c-.053.023-.441.173-.182.079.07-.025.14-.054.211-.08.17-.062.342-.119.515-.174.342-.108.688-.2,1.036-.291.849-.213,1.71-.378,2.575-.515.218-.034.436-.065.654-.1.3-.045-.34.04-.035,0l.334-.041q.711-.084,1.424-.143c.916-.075,1.834-.116,2.753-.115a2,2,0,0,0,0-4,39.554,39.554,0,0,0-6.193.534,21.155,21.155,0,0,0-5.111,1.384,2.005,2.005,0,0,0-.717,2.736,2.063,2.063,0,0,0,2.736.718Z"/><path class="d" d="M124.257,216.183c6.147,3.1,12.155,6.474,18.142,9.871a82.48,82.48,0,0,1,13.306,8.819c4.086,3.512,7.518,7.805,9.04,13.046,1.739,5.986.942,12.308-.661,18.23-1.936,7.155-4.98,13.976-7.746,20.835a2.014,2.014,0,0,0,1.4,2.461,2.049,2.049,0,0,0,2.46-1.4c4.909-12.174,11.617-25.556,8.929-39.055-2.366-11.88-12.539-19.324-22.382-25.059-6.714-3.913-13.528-7.7-20.466-11.2-2.292-1.157-4.32,2.292-2.019,3.454Z"/><path class="d" d="M18.108,218.174c-1.438,6.166-2.847,12.574-1.909,18.918a28.486,28.486,0,0,0,6.832,14.218c7.561,8.89,17.537,15.354,27.385,21.423,3.068,1.89,6.147,3.761,9.181,5.706.806.517,1.6,1.045,2.41,1.564.151.1.609.28.681.456-.1-.25-.286.566-.354.744-.735,1.936-1.531,3.852-2.286,5.781a2.015,2.015,0,0,0,1.4,2.461,2.047,2.047,0,0,0,2.46-1.4c.675-1.725,1.35-3.45,2.04-5.169.67-1.672,1.084-3.5-.217-5.006a16.7,16.7,0,0,0-3.72-2.636q-2.227-1.434-4.482-2.826c-5.122-3.175-10.207-6.361-15.206-9.729a83.536,83.536,0,0,1-12.672-10.171c-3.856-3.862-7.427-7.99-8.932-13.355-1.852-6.6-.267-13.42,1.249-19.918.585-2.5-3.271-3.573-3.857-1.064Z"/><path class="d" d="M19.057,242.209a24.927,24.927,0,0,0-6.159,4.557,22.16,22.16,0,0,0-5.273,11.287c-.956,5.888-.449,12.469,3.187,17.413,5.317,7.231,14.788,10.166,23.21,11.8a147.546,147.546,0,0,0,27.951,2.25c2.574,0,2.578-4,0-4a152.493,152.493,0,0,1-23.939-1.586,62.047,62.047,0,0,1-14.89-4.038,30.713,30.713,0,0,1-4.874-2.7q-.276-.19-.547-.389c-.069-.049-.5-.378-.319-.236.167.13-.217-.175-.3-.24-.159-.132-.317-.265-.473-.4a18.88,18.88,0,0,1-1.568-1.531c-.216-.237-.419-.484-.627-.727-.347-.405.075.116-.1-.118-.1-.14-.206-.279-.3-.42a15.73,15.73,0,0,1-.978-1.585,17.9,17.9,0,0,1-1.881-8.438,20.954,20.954,0,0,1,3.668-12.438c1.674-2.3,3.851-3.595,6.228-5.008,2.211-1.314.2-4.774-2.019-3.454Z"/><path class="d" d="M39.608,99.689a54.491,54.491,0,0,0-13.531,6.26,46.141,46.141,0,0,0-9.82,7.815C10,120.7,8.371,130.55,6.569,139.359c-1.987,9.712-3.526,19.512-5.36,29.253C-.433,177.333-.719,186,2.366,194.429a31.235,31.235,0,0,0,6.642,11.3,43.28,43.28,0,0,0,13.9,9.295,2.063,2.063,0,0,0,2.736-.717,2.015,2.015,0,0,0-.717-2.737c-7.663-3.387-14.76-8.363-17.99-16.354a39.908,39.908,0,0,1-2.77-9.919,46.035,46.035,0,0,1,.389-12.661c.774-5.031,1.85-10.023,2.72-15.039.763-4.4,1.51-8.794,2.354-13.174,1.745-9.054,3.129-18.435,8.274-26.293,1.953-2.984,5.456-5.583,8.562-7.668a51.982,51.982,0,0,1,14.2-6.915c2.465-.722,1.416-4.584-1.063-3.857Z"/><path class="d" d="M97.618,104.808c5.977,2.024,12.207,4.017,16.986,8.326A39.264,39.264,0,0,1,125.9,131.626c1.8,6.909,2.626,13.976,3.572,21.036.442,3.3.95,6.594,1.669,9.848.846,3.83,2.117,7.484,3.271,11.223a30.917,30.917,0,0,1,1.113,12.237,23.82,23.82,0,0,1-.979,4.771,11.283,11.283,0,0,1-.634,1.629c-.134.267-.283.523-.438.777-.053.086-.112.168-.17.251-.195.282.271-.308-.092.1-1.712,1.913,1.108,4.752,2.829,2.829,1.777-1.987,2.574-4.757,3.054-7.322a35.52,35.52,0,0,0,.235-11.456c-.575-4.132-2.2-7.953-3.3-11.954a92.821,92.821,0,0,1-2.244-10.785c-1.087-7.188-1.753-14.414-3.368-21.516a46.015,46.015,0,0,0-11.269-21.311c-5.53-5.875-13.007-8.506-20.461-11.03-2.443-.827-3.492,3.035-1.063,3.857Z"/><path class="d" d="M96.423,101.87a16.4,16.4,0,0,1-7.144,7.5c-3.662,1.927-7.918,2.229-11.978,2.336a52.034,52.034,0,0,1-23.143-4.469,55.092,55.092,0,0,1-11.873-7.351,2.059,2.059,0,0,0-2.828,0,2.014,2.014,0,0,0,0,2.829A57.676,57.676,0,0,0,63.438,114.5a55.844,55.844,0,0,0,13,1.225c4.7-.093,9.488-.434,13.83-2.4a19.943,19.943,0,0,0,9.614-9.438c1.125-2.3-2.324-4.334-3.454-2.019Z"/><path class="a" d="M138.952,198.76c-.08-.132-.166-.261-.255-.388a5.822,5.822,0,0,0-6.021-2.07,13.56,13.56,0,0,0-4.224,2.089l-1.384,1.086a60.4,60.4,0,0,1-6.463,27.459,5.857,5.857,0,0,0,3.151.1c1.458-.339,5.812-3.244,8.035-5.707a32.651,32.651,0,0,0,4.73-6.414c1.66-3.324,3.33-6.758,3.638-10.46A9.4,9.4,0,0,0,138.952,198.76Z"/><path class="d" d="M28.816,137.379c1.051,6.656,1.842,13.362,2.575,20.059.4,3.637.979,7.331.4,10.976-.751,4.738-1.554,9.464-2.184,14.221a2.01,2.01,0,0,0,2,2,2.052,2.052,0,0,0,2-2c.625-4.718,1.517-9.392,2.188-14.1.544-3.815-.025-7.632-.443-11.433-.765-6.939-1.592-13.887-2.68-20.784a2.015,2.015,0,0,0-2.461-1.4,2.049,2.049,0,0,0-1.4,2.46Z"/><path class="d" d="M114.53,145.6a34.842,34.842,0,0,1,2.6,15.817,22.564,22.564,0,0,1-.477,3.383c-.119.536-.313,1.06-.425,1.595a3.169,3.169,0,0,0,.771,2.452,50.924,50.924,0,0,1,3.39,6.6,62.341,62.341,0,0,1,4.258,31.3,56.9,56.9,0,0,1-5.1,17.861c-1.1,2.312,2.345,4.344,3.453,2.019a65.355,65.355,0,0,0,2.562-48.791,56.574,56.574,0,0,0-5.675-11.914l.2,1.541c2.219-7.278,1.226-15.985-1.693-22.922a2.068,2.068,0,0,0-2.461-1.4,2.013,2.013,0,0,0-1.4,2.46Z"/><path class="a" d="M36.028,214.872c-.2-4.29,1.714-9.228,3.516-13.385A7.7,7.7,0,0,1,40.4,199.9a15.61,15.61,0,0,1,5.142-3.756c1.514-.873,3.9-.992,6.956-.96a74.9,74.9,0,0,1,10.383,1.162c3.109.5,4.093,1.836,3.912,3.792-.193,2.071-3.93,3.3-6.585,3.464L58.5,203.7a51.935,51.935,0,0,0,10.388,3.6c4.7.928,5.766,2.746,5.766,4.251,0,1.17-.914,1.931-2.389,2.187.85.1,1.467.186,1.467.186,2.738.355,4.964,1.5,4.811,3.873-.152,2.356-3.009,2.6-4.946,2.55,1.458.377,2.669,1.188,2.571,3.047a2.722,2.722,0,0,1-3.2,2.381l-4.527-.434,2.164.407a2.739,2.739,0,0,1,2.539,2.688,2.934,2.934,0,0,1-1.462,2.458,14.316,14.316,0,0,1-5.164.511,63.015,63.015,0,0,1-11.388-.932,21.277,21.277,0,0,1-4.551-1.8c-4.084-2.311-13.023-8.316-14.37-12.23A11.609,11.609,0,0,1,36.028,214.872Z"/><path class="d" d="M55.84,204.709c2.707,1.191,5.418,2.4,8.22,3.35a35.11,35.11,0,0,0,3.974,1.112,16.3,16.3,0,0,1,3.08.869,6.816,6.816,0,0,1,1.012.59c.192.137-.05-.033-.072-.052a2.2,2.2,0,0,1,.175.159c.135.148.346.418.119.083.085.125.157.26.241.385.2.306-.021-.1-.013-.035a1.123,1.123,0,0,0,.087.33c-.013-.018.02-.425-.015-.047,0,.051.041.171.018.043-.029-.163.029.088-.033.127,0,0,.074-.2.093-.172-.036-.046.061.026-.094.095.268-.12-.235.115-.042.04a2.856,2.856,0,0,1-.713.186,24.227,24.227,0,0,1-2.954-.247,52.874,52.874,0,0,1-8.33-1.567c-2.49-.663-3.552,3.195-1.063,3.857a59.557,59.557,0,0,0,9,1.669c2.6.279,5.824.752,7.5-1.807a4.658,4.658,0,0,0-.814-5.608c-1.789-1.912-4.5-2.354-6.915-2.935a62.623,62.623,0,0,1-10.444-3.879,2.064,2.064,0,0,0-2.736.718,2.015,2.015,0,0,0,.717,2.736Z"/><path class="d" d="M73.2,215.859a6.526,6.526,0,0,1,2.96.949.864.864,0,0,1,.271,1.156c.1-.2-.174,0,.031-.065a3.311,3.311,0,0,1-.344.192c.136-.056.138-.06.005-.012a5.5,5.5,0,0,1-.716.187c-.639.131.327-.012-.326.048a16.482,16.482,0,0,1-2.61-.014,109.348,109.348,0,0,1-13.2-1.7,2.053,2.053,0,0,0-2.46,1.4,2.019,2.019,0,0,0,1.4,2.461,129.115,129.115,0,0,0,13.36,1.774A14.921,14.921,0,0,0,76.984,222a4.623,4.623,0,0,0,3.453-5.448c-.552-2.889-3.563-4.179-6.177-4.548a2.067,2.067,0,0,0-2.46,1.4,2.013,2.013,0,0,0,1.4,2.46Z"/><path class="d" d="M57.781,226.605a130.843,130.843,0,0,0,14.539,1.177,6.734,6.734,0,0,0,3.608-.668,4.592,4.592,0,0,0,2.112-2.805c.666-2.773-1.121-4.979-3.643-5.811-2.45-.808-3.5,3.054-1.063,3.857a2.307,2.307,0,0,1,.73.365c-.052-.038.074.208.072.182.014.171.006.322.028.5-.023-.186-.028-.149-.031.031,0-.253-.1.128.027-.011a2.105,2.105,0,0,1-.3.3c.07-.048-.251.068-.333.077a11.905,11.905,0,0,1-1.335-.014q-1.321-.009-2.644-.067c-3.937-.173-7.856-.651-11.767-1.109a2.012,2.012,0,0,0-2,2,2.047,2.047,0,0,0,2,2Z"/><path class="d" d="M44.534,194.413c-2.392,1.118-5.05,2.857-6.335,5.242a41.736,41.736,0,0,0-3.276,8.591c-.738,2.7-1.377,5.957-.649,8.73.489,1.862,2.108,3.516,3.441,4.814a58.457,58.457,0,0,0,11.042,8.144c5.07,3,11.023,3.438,16.8,3.477,3.058.021,7.259.494,8.964-2.675,1.617-3-.235-6.188-3.393-6.91-2.506-.572-3.576,3.283-1.064,3.857.5.114,1.1.207,1.06.811-.053.918-1.32.859-2,.9a61.607,61.607,0,0,1-7.38-.116,29.721,29.721,0,0,1-7.124-1.03,22.031,22.031,0,0,1-4.741-2.308A55.759,55.759,0,0,1,41,219.392a11.089,11.089,0,0,1-2.832-3.4c.087.206-.1-.586-.11-.689a12.753,12.753,0,0,1-.03-1.576,17.833,17.833,0,0,1,.54-3.58,45.064,45.064,0,0,1,2.707-7.649c1.008-2.266,3.083-3.6,5.282-4.63a2.016,2.016,0,0,0,.717-2.736,2.044,2.044,0,0,0-2.736-.717Z"/><path class="d" d="M60.209,205.6c2.776-.205,6.579-1.038,8.07-3.7a4.954,4.954,0,0,0-2.563-6.811,20.256,20.256,0,0,0-5.275-1.139c-1.927-.282-3.861-.542-5.8-.68-3.232-.229-7.158-.454-10.1,1.142-2.264,1.226-.247,4.681,2.019,3.453,1.8-.973,4.721-.745,6.822-.664a71.055,71.055,0,0,1,8.612,1.009,6.056,6.056,0,0,1,2.6.821.925.925,0,0,1,.2.959c.127-.33-.2.186-.025,0-.044.046-.321.3-.313.293a5.068,5.068,0,0,1-1.2.634,10.462,10.462,0,0,1-3.038.68,2.05,2.05,0,0,0-2,2,2.016,2.016,0,0,0,2,2Z"/><path class="d" d="M117.019,226.35c1.6,3.222,5.977,3.4,8.839,1.971a26.424,26.424,0,0,0,7.718-5.993,37.432,37.432,0,0,0,6.493-10.25c1.607-3.731,2.9-8.069,1.61-12.1s-5.268-6.762-9.534-5.606c-2.482.672-1.429,4.532,1.063,3.857,3.57-.967,5.111,2.96,4.977,5.827-.179,3.826-2.139,7.967-4.142,11.173a27.492,27.492,0,0,1-6.982,7.606,16.344,16.344,0,0,1-3.642,2.231c.346-.129-.594.119-.56.114a3.954,3.954,0,0,1-.929.009,1.6,1.6,0,0,1-1.457-.858c-1.144-2.306-4.6-.282-3.454,2.018Z"/></svg>